<mxfile host="app.diagrams.net" agent="Mozilla/5.0 (Macintosh; Intel Mac OS X 10.15; rv:136.0) Gecko/20100101 Firefox/136.0" version="26.1.0">
  <diagram name="Page-1" id="N9sTalgaNJs5XKEDTspN">
    <mxGraphModel dx="-58" dy="311" grid="1" gridSize="10" guides="1" tooltips="1" connect="1" arrows="1" fold="1" page="1" pageScale="1" pageWidth="226" pageHeight="300" math="0" shadow="0">
      <root>
        <mxCell id="0" />
        <mxCell id="1" parent="0" />
        <mxCell id="Uw4GRh0StcFXyU0OGhcB-20" style="edgeStyle=orthogonalEdgeStyle;rounded=0;orthogonalLoop=1;jettySize=auto;html=1;entryX=0.5;entryY=0;entryDx=0;entryDy=0;" parent="1" source="Uw4GRh0StcFXyU0OGhcB-2" target="Uw4GRh0StcFXyU0OGhcB-16" edge="1">
          <mxGeometry relative="1" as="geometry" />
        </mxCell>
        <mxCell id="Uw4GRh0StcFXyU0OGhcB-2" value="&lt;font style=&quot;font-size: 10px;&quot;&gt;L1&lt;/font&gt;" style="whiteSpace=wrap;html=1;aspect=fixed;" parent="1" vertex="1">
          <mxGeometry x="506.69" y="11" width="21.26" height="21.26" as="geometry" />
        </mxCell>
        <mxCell id="Uw4GRh0StcFXyU0OGhcB-19" style="edgeStyle=orthogonalEdgeStyle;rounded=0;orthogonalLoop=1;jettySize=auto;html=1;entryX=0;entryY=0.5;entryDx=0;entryDy=0;" parent="1" source="Uw4GRh0StcFXyU0OGhcB-7" target="Uw4GRh0StcFXyU0OGhcB-2" edge="1">
          <mxGeometry relative="1" as="geometry" />
        </mxCell>
        <mxCell id="Uw4GRh0StcFXyU0OGhcB-7" value="&lt;font style=&quot;font-size: 10px;&quot;&gt;A&lt;/font&gt;" style="ellipse;whiteSpace=wrap;html=1;aspect=fixed;" parent="1" vertex="1">
          <mxGeometry x="457" y="12.25" width="18.75" height="18.75" as="geometry" />
        </mxCell>
        <mxCell id="Uw4GRh0StcFXyU0OGhcB-26" style="edgeStyle=orthogonalEdgeStyle;rounded=0;orthogonalLoop=1;jettySize=auto;html=1;" parent="1" source="Uw4GRh0StcFXyU0OGhcB-11" target="Uw4GRh0StcFXyU0OGhcB-18" edge="1">
          <mxGeometry relative="1" as="geometry" />
        </mxCell>
        <mxCell id="Uw4GRh0StcFXyU0OGhcB-11" value="&lt;font style=&quot;font-size: 10px;&quot;&gt;L4&lt;/font&gt;" style="whiteSpace=wrap;html=1;aspect=fixed;" parent="1" vertex="1">
          <mxGeometry x="608.25" y="12.259999999999991" width="20" height="20" as="geometry" />
        </mxCell>
        <mxCell id="Uw4GRh0StcFXyU0OGhcB-22" style="edgeStyle=orthogonalEdgeStyle;rounded=0;orthogonalLoop=1;jettySize=auto;html=1;" parent="1" source="Uw4GRh0StcFXyU0OGhcB-12" target="Uw4GRh0StcFXyU0OGhcB-17" edge="1">
          <mxGeometry relative="1" as="geometry" />
        </mxCell>
        <mxCell id="Uw4GRh0StcFXyU0OGhcB-12" value="&lt;font style=&quot;font-size: 10px;&quot;&gt;L2&lt;/font&gt;" style="whiteSpace=wrap;html=1;aspect=fixed;" parent="1" vertex="1">
          <mxGeometry x="506.69" y="112.25999999999999" width="21.25" height="21.25" as="geometry" />
        </mxCell>
        <mxCell id="Uw4GRh0StcFXyU0OGhcB-24" style="edgeStyle=orthogonalEdgeStyle;rounded=0;orthogonalLoop=1;jettySize=auto;html=1;" parent="1" source="Uw4GRh0StcFXyU0OGhcB-13" target="Uw4GRh0StcFXyU0OGhcB-15" edge="1">
          <mxGeometry relative="1" as="geometry" />
        </mxCell>
        <mxCell id="Uw4GRh0StcFXyU0OGhcB-13" value="&lt;font style=&quot;font-size: 10px;&quot;&gt;L3&lt;/font&gt;" style="whiteSpace=wrap;html=1;aspect=fixed;" parent="1" vertex="1">
          <mxGeometry x="607.63" y="111.94999999999999" width="20.62" height="20.62" as="geometry" />
        </mxCell>
        <mxCell id="Uw4GRh0StcFXyU0OGhcB-25" style="edgeStyle=orthogonalEdgeStyle;rounded=0;orthogonalLoop=1;jettySize=auto;html=1;" parent="1" source="Uw4GRh0StcFXyU0OGhcB-15" target="Uw4GRh0StcFXyU0OGhcB-11" edge="1">
          <mxGeometry relative="1" as="geometry" />
        </mxCell>
        <mxCell id="Uw4GRh0StcFXyU0OGhcB-15" value="&lt;font style=&quot;font-size: 10px;&quot;&gt;D&lt;/font&gt;" style="ellipse;whiteSpace=wrap;html=1;aspect=fixed;" parent="1" vertex="1">
          <mxGeometry x="608.88" y="64.13999999999999" width="18.12" height="18.12" as="geometry" />
        </mxCell>
        <mxCell id="Uw4GRh0StcFXyU0OGhcB-27" style="edgeStyle=orthogonalEdgeStyle;rounded=0;orthogonalLoop=1;jettySize=auto;html=1;" parent="1" source="Uw4GRh0StcFXyU0OGhcB-16" target="Uw4GRh0StcFXyU0OGhcB-12" edge="1">
          <mxGeometry relative="1" as="geometry" />
        </mxCell>
        <mxCell id="Uw4GRh0StcFXyU0OGhcB-16" value="&lt;font style=&quot;font-size: 10px;&quot;&gt;B&lt;/font&gt;" style="ellipse;whiteSpace=wrap;html=1;aspect=fixed;" parent="1" vertex="1">
          <mxGeometry x="508.26" y="64.13999999999999" width="18.12" height="18.12" as="geometry" />
        </mxCell>
        <mxCell id="Uw4GRh0StcFXyU0OGhcB-23" style="edgeStyle=orthogonalEdgeStyle;rounded=0;orthogonalLoop=1;jettySize=auto;html=1;" parent="1" source="Uw4GRh0StcFXyU0OGhcB-17" target="Uw4GRh0StcFXyU0OGhcB-13" edge="1">
          <mxGeometry relative="1" as="geometry" />
        </mxCell>
        <mxCell id="Uw4GRh0StcFXyU0OGhcB-17" value="&lt;font style=&quot;font-size: 10px;&quot;&gt;C&lt;/font&gt;" style="ellipse;whiteSpace=wrap;html=1;aspect=fixed;" parent="1" vertex="1">
          <mxGeometry x="559" y="112.25999999999999" width="20" height="20" as="geometry" />
        </mxCell>
        <mxCell id="Uw4GRh0StcFXyU0OGhcB-18" value="&lt;font style=&quot;font-size: 10px;&quot;&gt;E&lt;/font&gt;" style="ellipse;whiteSpace=wrap;html=1;aspect=fixed;" parent="1" vertex="1">
          <mxGeometry x="653" y="11.939999999999998" width="19.37" height="19.37" as="geometry" />
        </mxCell>
        <mxCell id="XycjLeOscUfnSwj_mOA--1" style="edgeStyle=orthogonalEdgeStyle;rounded=0;orthogonalLoop=1;jettySize=auto;html=1;entryX=0.5;entryY=0;entryDx=0;entryDy=0;" edge="1" parent="1" source="XycjLeOscUfnSwj_mOA--2" target="XycjLeOscUfnSwj_mOA--14">
          <mxGeometry relative="1" as="geometry" />
        </mxCell>
        <mxCell id="XycjLeOscUfnSwj_mOA--2" value="&lt;font style=&quot;font-size: 10px;&quot;&gt;L1&lt;/font&gt;" style="whiteSpace=wrap;html=1;aspect=fixed;" vertex="1" parent="1">
          <mxGeometry x="506.69000000000005" y="171" width="21.26" height="21.26" as="geometry" />
        </mxCell>
        <mxCell id="XycjLeOscUfnSwj_mOA--3" style="edgeStyle=orthogonalEdgeStyle;rounded=0;orthogonalLoop=1;jettySize=auto;html=1;entryX=0;entryY=0.5;entryDx=0;entryDy=0;" edge="1" parent="1" source="XycjLeOscUfnSwj_mOA--4" target="XycjLeOscUfnSwj_mOA--2">
          <mxGeometry relative="1" as="geometry" />
        </mxCell>
        <mxCell id="XycjLeOscUfnSwj_mOA--4" value="&lt;font style=&quot;font-size: 10px;&quot;&gt;A&lt;/font&gt;" style="ellipse;whiteSpace=wrap;html=1;aspect=fixed;" vertex="1" parent="1">
          <mxGeometry x="457" y="172.25" width="18.75" height="18.75" as="geometry" />
        </mxCell>
        <mxCell id="XycjLeOscUfnSwj_mOA--5" style="edgeStyle=orthogonalEdgeStyle;rounded=0;orthogonalLoop=1;jettySize=auto;html=1;" edge="1" parent="1" source="XycjLeOscUfnSwj_mOA--6" target="XycjLeOscUfnSwj_mOA--17">
          <mxGeometry relative="1" as="geometry" />
        </mxCell>
        <mxCell id="XycjLeOscUfnSwj_mOA--6" value="&lt;font style=&quot;font-size: 10px;&quot;&gt;L4&lt;/font&gt;" style="whiteSpace=wrap;html=1;aspect=fixed;" vertex="1" parent="1">
          <mxGeometry x="608.25" y="172.26" width="20" height="20" as="geometry" />
        </mxCell>
        <mxCell id="XycjLeOscUfnSwj_mOA--7" style="edgeStyle=orthogonalEdgeStyle;rounded=0;orthogonalLoop=1;jettySize=auto;html=1;" edge="1" parent="1" source="XycjLeOscUfnSwj_mOA--8" target="XycjLeOscUfnSwj_mOA--16">
          <mxGeometry relative="1" as="geometry" />
        </mxCell>
        <mxCell id="XycjLeOscUfnSwj_mOA--8" value="&lt;font style=&quot;font-size: 10px;&quot;&gt;L2&lt;/font&gt;" style="whiteSpace=wrap;html=1;aspect=fixed;" vertex="1" parent="1">
          <mxGeometry x="506.69000000000005" y="272.26" width="21.25" height="21.25" as="geometry" />
        </mxCell>
        <mxCell id="XycjLeOscUfnSwj_mOA--9" style="edgeStyle=orthogonalEdgeStyle;rounded=0;orthogonalLoop=1;jettySize=auto;html=1;" edge="1" parent="1" source="XycjLeOscUfnSwj_mOA--10" target="XycjLeOscUfnSwj_mOA--12">
          <mxGeometry relative="1" as="geometry" />
        </mxCell>
        <mxCell id="XycjLeOscUfnSwj_mOA--10" value="&lt;font style=&quot;font-size: 10px;&quot;&gt;L3&lt;/font&gt;" style="whiteSpace=wrap;html=1;aspect=fixed;" vertex="1" parent="1">
          <mxGeometry x="607.63" y="271.95" width="20.62" height="20.62" as="geometry" />
        </mxCell>
        <mxCell id="XycjLeOscUfnSwj_mOA--11" style="edgeStyle=orthogonalEdgeStyle;rounded=0;orthogonalLoop=1;jettySize=auto;html=1;" edge="1" parent="1" source="XycjLeOscUfnSwj_mOA--12" target="XycjLeOscUfnSwj_mOA--6">
          <mxGeometry relative="1" as="geometry" />
        </mxCell>
        <mxCell id="XycjLeOscUfnSwj_mOA--12" value="&lt;font style=&quot;font-size: 10px;&quot;&gt;D&lt;/font&gt;" style="ellipse;whiteSpace=wrap;html=1;aspect=fixed;" vertex="1" parent="1">
          <mxGeometry x="608.88" y="224.14" width="18.12" height="18.12" as="geometry" />
        </mxCell>
        <mxCell id="XycjLeOscUfnSwj_mOA--13" style="edgeStyle=orthogonalEdgeStyle;rounded=0;orthogonalLoop=1;jettySize=auto;html=1;" edge="1" parent="1" source="XycjLeOscUfnSwj_mOA--14" target="XycjLeOscUfnSwj_mOA--8">
          <mxGeometry relative="1" as="geometry" />
        </mxCell>
        <mxCell id="XycjLeOscUfnSwj_mOA--19" value="" style="edgeStyle=orthogonalEdgeStyle;rounded=0;orthogonalLoop=1;jettySize=auto;html=1;" edge="1" parent="1" source="XycjLeOscUfnSwj_mOA--14" target="XycjLeOscUfnSwj_mOA--18">
          <mxGeometry relative="1" as="geometry" />
        </mxCell>
        <mxCell id="XycjLeOscUfnSwj_mOA--14" value="&lt;font style=&quot;font-size: 10px;&quot;&gt;B&lt;/font&gt;" style="ellipse;whiteSpace=wrap;html=1;aspect=fixed;" vertex="1" parent="1">
          <mxGeometry x="508.26" y="224.14" width="18.12" height="18.12" as="geometry" />
        </mxCell>
        <mxCell id="XycjLeOscUfnSwj_mOA--15" style="edgeStyle=orthogonalEdgeStyle;rounded=0;orthogonalLoop=1;jettySize=auto;html=1;" edge="1" parent="1" source="XycjLeOscUfnSwj_mOA--16" target="XycjLeOscUfnSwj_mOA--10">
          <mxGeometry relative="1" as="geometry" />
        </mxCell>
        <mxCell id="XycjLeOscUfnSwj_mOA--16" value="&lt;font style=&quot;font-size: 10px;&quot;&gt;C&lt;/font&gt;" style="ellipse;whiteSpace=wrap;html=1;aspect=fixed;" vertex="1" parent="1">
          <mxGeometry x="559" y="272.26" width="20" height="20" as="geometry" />
        </mxCell>
        <mxCell id="XycjLeOscUfnSwj_mOA--17" value="&lt;font style=&quot;font-size: 10px;&quot;&gt;E&lt;/font&gt;" style="ellipse;whiteSpace=wrap;html=1;aspect=fixed;" vertex="1" parent="1">
          <mxGeometry x="653" y="171.94" width="19.37" height="19.37" as="geometry" />
        </mxCell>
        <mxCell id="XycjLeOscUfnSwj_mOA--21" value="" style="edgeStyle=orthogonalEdgeStyle;rounded=0;orthogonalLoop=1;jettySize=auto;html=1;" edge="1" parent="1" source="XycjLeOscUfnSwj_mOA--18" target="XycjLeOscUfnSwj_mOA--20">
          <mxGeometry relative="1" as="geometry" />
        </mxCell>
        <mxCell id="XycjLeOscUfnSwj_mOA--18" value="&lt;font style=&quot;font-size: 10px;&quot;&gt;L5&lt;/font&gt;" style="whiteSpace=wrap;html=1;aspect=fixed;" vertex="1" parent="1">
          <mxGeometry x="456.38" y="223.2" width="20" height="20" as="geometry" />
        </mxCell>
        <mxCell id="XycjLeOscUfnSwj_mOA--20" value="&lt;font style=&quot;font-size: 10px;&quot;&gt;F&lt;/font&gt;" style="ellipse;whiteSpace=wrap;html=1;aspect=fixed;" vertex="1" parent="1">
          <mxGeometry x="457" y="272.89" width="18.75" height="18.75" as="geometry" />
        </mxCell>
      </root>
    </mxGraphModel>
  </diagram>
</mxfile>
